<svg t="1621316066844" class="icon" viewBox="0 0 1024 1024" version="1.1" xmlns="http://www.w3.org/2000/svg" p-id="2382" width="128" height="128" xmlns:xlink="http://www.w3.org/1999/xlink"><defs><style type="text/css"></style></defs><path d="M203.649 243.201c10.32-12.71 20.552-24.541 30.87-35.498a320.005 320.005 0 0 1 25.324-27.698c8.844-8.678 15.609-14.988 20.118-19.108 6.33-5.172 13.008-9.817 20.12-13.849 7.11-4.032 16.734-6.048 28.702-6.048h370.462c7.459 0 16.045 1.578 25.757 4.733 9.713 3.155 19.164 9.641 28.27 19.546 4.596 5.786 10.58 12.973 18.037 21.65 7.459 8.678 14.57 17.005 21.42 25.156 7.978 9.817 15.956 20.248 24.021 31.204H203.648v-0.088z m696.264 259.187c0 18.494-5.983 34.095-18.037 46.805-11.967 12.71-29.138 19.108-51.424 19.108H196.797c-21.767 0-39.023-6.31-51.858-19.108-12.92-12.71-19.338-28.311-19.338-46.805v-123.94c0-18.495 5.724-34.36 17.17-47.683 11.448-13.323 30.006-19.984 55.76-19.984h631.141c26.276 0 44.573 6.661 54.893 19.985C894.885 344.088 900 359.954 900 378.448v123.94h-0.087z m-323.287-62.41c0-7.537-1.822-12.883-5.55-16.04-3.73-3.155-8.76-4.732-15.003-4.732h-86.632c-6.33 0-11.447 2.016-15.435 6.048-3.99 4.032-5.984 8.94-5.984 14.725 0.607 7.539 2.688 12.973 6.418 16.479 3.727 3.506 8.757 5.171 15.001 5.171h86.632c13.181 0 20.033-7.188 20.553-21.65zM897.398 816.18c0 18.495-7.024 34.36-20.986 47.683-14.048 13.323-31.912 19.634-53.592 19.108H194.197c-18.297 0-34.774-6.486-49.343-19.46C130.284 850.54 123 832.485 123 809.345V693.029c0-19.108 5.897-35.06 17.604-48.12 11.707-12.973 30.439-19.46 56.193-19.46h629.407c24.02 0 41.884 6.487 53.591 19.46 11.708 12.972 17.605 28.749 17.605 47.243V816.18h-0.002zM574.11 754.65c0-5.786-1.82-10.695-5.55-14.726-3.727-4.033-8.757-6.048-15.001-6.048h-86.632c-6.33 0-11.447 2.015-15.436 6.047-3.99 4.033-5.984 8.941-5.984 14.726s1.994 10.694 5.984 14.726 9.105 6.047 15.436 6.047h86.632c6.244 0 11.273-2.015 15.002-6.047 3.642-4.12 5.55-9.028 5.55-14.726z"></path></svg>
