<?xml version="1.0" standalone="no"?><!DOCTYPE svg PUBLIC "-//W3C//DTD SVG 1.1//EN" "http://www.w3.org/Graphics/SVG/1.1/DTD/svg11.dtd"><svg t="1621330151219" class="icon" viewBox="0 0 1068 1024" version="1.1" xmlns="http://www.w3.org/2000/svg" p-id="3353" xmlns:xlink="http://www.w3.org/1999/xlink" width="133.5" height="128"><defs><style type="text/css"></style></defs><path d="M561.552696 82.67687L204.889043 297.004522 43.631304 207.159652 413.117217 0l148.435479 82.67687z m76.889043 42.829913l146.610087 81.652869-369.530435 207.159652L281.822609 339.834435l356.663652-214.327652zM827.748174 572.727652a228.975304 228.975304 0 0 0-215.663304 254.842435l-154.134261 88.286609 1.246608-442.546087 369.441392-211.611826-0.890435 311.028869z" p-id="3354"></path><path d="M1015.496348 814.124522c0 19.099826 8.548174 36.240696 22.260869 48.128a17.185391 17.185391 0 0 1 3.650783 21.860174l-30.497391 51.2a17.808696 17.808696 0 0 1-20.658087 7.791304 70.121739 70.121739 0 0 0-20.791652-3.116522c-32.50087 0-59.570087 21.949217-66.114783 51.244522a17.630609 17.630609 0 0 1-17.274435 13.668174h-60.549565a17.630609 17.630609 0 0 1-17.229913-13.668174c-6.544696-29.295304-33.658435-51.244522-66.114783-51.244522-7.257043 0-14.246957 1.113043-20.791652 3.116522a17.808696 17.808696 0 0 1-20.658087-7.746783l-30.497391-51.244521a17.185391 17.185391 0 0 1 3.650782-21.815653c13.668174-11.931826 22.26087-29.072696 22.26087-48.172521a63.666087 63.666087 0 0 0-22.26087-48.172522 17.185391 17.185391 0 0 1-3.650782-21.815652l30.497391-51.244522a17.808696 17.808696 0 0 1 20.658087-7.791304c6.544696 2.048 13.534609 3.116522 20.791652 3.116521 32.456348 0 59.570087-21.949217 66.114783-51.244521a17.630609 17.630609 0 0 1 17.274435-13.668174h60.549565c8.281043 0 15.449043 5.698783 17.229913 13.668174 6.544696 29.295304 33.658435 51.244522 66.114783 51.244521 7.257043 0 14.246957-1.068522 20.791652-3.116521a17.808696 17.808696 0 0 1 20.658087 7.791304l30.497391 51.2a17.185391 17.185391 0 0 1-3.695304 21.860174 63.666087 63.666087 0 0 0-22.26087 48.172522z m-159.699478-81.786435c-45.857391 0-82.988522 36.59687-82.988522 81.786435 0 45.145043 37.175652 81.741913 82.988522 81.741913 45.857391 0 83.033043-36.59687 83.033043-81.741913 0-45.189565-37.175652-81.786435-83.033043-81.786435z" p-id="3355"></path><path d="M0 709.676522l369.441391 211.656348 1.291131-442.590609L1.246609 267.130435z" p-id="3356"></path></svg>